<mxfile host="app.diagrams.net" agent="Mozilla/5.0 (Windows NT 10.0; Win64; x64) AppleWebKit/537.36 (KHTML, like Gecko) Chrome/135.0.0.0 Safari/537.36" version="26.2.14">
  <diagram name="PÃ¡gina-1" id="gfYEeVXDrZuQ-25ZXmSc">
    <mxGraphModel dx="1554" dy="933" grid="1" gridSize="10" guides="1" tooltips="1" connect="1" arrows="1" fold="1" page="1" pageScale="1" pageWidth="1200" pageHeight="1600" math="0" shadow="0">
      <root>
        <mxCell id="0" />
        <mxCell id="1" parent="0" />
        <mxCell id="uiOcUS1UXc89rVokBoGU-2" value="" style="sketch=0;outlineConnect=0;fontColor=#232F3E;gradientColor=none;fillColor=#66B2FF;strokeColor=none;dashed=0;verticalLabelPosition=bottom;verticalAlign=top;align=center;html=1;fontSize=12;fontStyle=0;aspect=fixed;pointerEvents=1;shape=mxgraph.aws4.source_code;" vertex="1" parent="1">
          <mxGeometry x="102" y="530" width="57" height="78" as="geometry" />
        </mxCell>
        <mxCell id="uiOcUS1UXc89rVokBoGU-3" value="" style="sketch=0;outlineConnect=0;fontColor=#232F3E;gradientColor=none;fillColor=#66B2FF;strokeColor=none;dashed=0;verticalLabelPosition=bottom;verticalAlign=top;align=center;html=1;fontSize=12;fontStyle=0;aspect=fixed;pointerEvents=1;shape=mxgraph.aws4.json_script;" vertex="1" parent="1">
          <mxGeometry x="100" y="400" width="57" height="78" as="geometry" />
        </mxCell>
        <mxCell id="uiOcUS1UXc89rVokBoGU-6" value="" style="sketch=0;points=[[0,0,0],[0.25,0,0],[0.5,0,0],[0.75,0,0],[1,0,0],[0,1,0],[0.25,1,0],[0.5,1,0],[0.75,1,0],[1,1,0],[0,0.25,0],[0,0.5,0],[0,0.75,0],[1,0.25,0],[1,0.5,0],[1,0.75,0]];outlineConnect=0;fontColor=#232F3E;fillColor=#7AA116;strokeColor=#ffffff;dashed=0;verticalLabelPosition=bottom;verticalAlign=top;align=center;html=1;fontSize=12;fontStyle=0;aspect=fixed;shape=mxgraph.aws4.resourceIcon;resIcon=mxgraph.aws4.s3;" vertex="1" parent="1">
          <mxGeometry x="389" y="584" width="78" height="78" as="geometry" />
        </mxCell>
        <mxCell id="uiOcUS1UXc89rVokBoGU-7" value="S3 Bucket" style="text;html=1;align=center;verticalAlign=middle;whiteSpace=wrap;rounded=0;" vertex="1" parent="1">
          <mxGeometry x="398" y="662" width="60" height="30" as="geometry" />
        </mxCell>
        <mxCell id="uiOcUS1UXc89rVokBoGU-8" value="" style="sketch=0;points=[[0,0,0],[0.25,0,0],[0.5,0,0],[0.75,0,0],[1,0,0],[0,1,0],[0.25,1,0],[0.5,1,0],[0.75,1,0],[1,1,0],[0,0.25,0],[0,0.5,0],[0,0.75,0],[1,0.25,0],[1,0.5,0],[1,0.75,0]];outlineConnect=0;fontColor=#232F3E;fillColor=#ED7100;strokeColor=#ffffff;dashed=0;verticalLabelPosition=bottom;verticalAlign=top;align=center;html=1;fontSize=12;fontStyle=0;aspect=fixed;shape=mxgraph.aws4.resourceIcon;resIcon=mxgraph.aws4.lambda;" vertex="1" parent="1">
          <mxGeometry x="230" y="258" width="78" height="78" as="geometry" />
        </mxCell>
        <mxCell id="uiOcUS1UXc89rVokBoGU-39" style="edgeStyle=orthogonalEdgeStyle;rounded=0;orthogonalLoop=1;jettySize=auto;html=1;" edge="1" parent="1" source="uiOcUS1UXc89rVokBoGU-9" target="uiOcUS1UXc89rVokBoGU-28">
          <mxGeometry relative="1" as="geometry" />
        </mxCell>
        <mxCell id="uiOcUS1UXc89rVokBoGU-9" value="" style="sketch=0;points=[[0,0,0],[0.25,0,0],[0.5,0,0],[0.75,0,0],[1,0,0],[0,1,0],[0.25,1,0],[0.5,1,0],[0.75,1,0],[1,1,0],[0,0.25,0],[0,0.5,0],[0,0.75,0],[1,0.25,0],[1,0.5,0],[1,0.75,0]];outlineConnect=0;fontColor=#232F3E;fillColor=#ED7100;strokeColor=#ffffff;dashed=0;verticalLabelPosition=bottom;verticalAlign=top;align=center;html=1;fontSize=12;fontStyle=0;aspect=fixed;shape=mxgraph.aws4.resourceIcon;resIcon=mxgraph.aws4.lambda;" vertex="1" parent="1">
          <mxGeometry x="230" y="400" width="78" height="78" as="geometry" />
        </mxCell>
        <mxCell id="uiOcUS1UXc89rVokBoGU-10" value="BD" style="text;html=1;align=center;verticalAlign=middle;whiteSpace=wrap;rounded=0;" vertex="1" parent="1">
          <mxGeometry x="96" y="334" width="60" height="30" as="geometry" />
        </mxCell>
        <mxCell id="uiOcUS1UXc89rVokBoGU-11" value="JSON" style="text;html=1;align=center;verticalAlign=middle;whiteSpace=wrap;rounded=0;" vertex="1" parent="1">
          <mxGeometry x="100.5" y="478" width="60" height="30" as="geometry" />
        </mxCell>
        <mxCell id="uiOcUS1UXc89rVokBoGU-12" value="CSV" style="text;html=1;align=center;verticalAlign=middle;whiteSpace=wrap;rounded=0;" vertex="1" parent="1">
          <mxGeometry x="97" y="608" width="60" height="30" as="geometry" />
        </mxCell>
        <mxCell id="uiOcUS1UXc89rVokBoGU-22" style="edgeStyle=orthogonalEdgeStyle;rounded=0;orthogonalLoop=1;jettySize=auto;html=1;" edge="1" parent="1" source="uiOcUS1UXc89rVokBoGU-13" target="uiOcUS1UXc89rVokBoGU-18">
          <mxGeometry relative="1" as="geometry" />
        </mxCell>
        <mxCell id="uiOcUS1UXc89rVokBoGU-13" value="" style="sketch=0;outlineConnect=0;fontColor=#232F3E;gradientColor=none;fillColor=#66B2FF;strokeColor=none;dashed=0;verticalLabelPosition=bottom;verticalAlign=top;align=center;html=1;fontSize=12;fontStyle=0;aspect=fixed;pointerEvents=1;shape=mxgraph.aws4.document;" vertex="1" parent="1">
          <mxGeometry x="105" y="670" width="57" height="78" as="geometry" />
        </mxCell>
        <mxCell id="uiOcUS1UXc89rVokBoGU-14" value="API" style="text;html=1;align=center;verticalAlign=middle;whiteSpace=wrap;rounded=0;" vertex="1" parent="1">
          <mxGeometry x="105" y="760" width="60" height="30" as="geometry" />
        </mxCell>
        <mxCell id="uiOcUS1UXc89rVokBoGU-15" value="" style="html=1;verticalLabelPosition=bottom;align=center;labelBackgroundColor=#ffffff;verticalAlign=top;strokeWidth=2;strokeColor=#0080F0;shadow=0;dashed=0;shape=mxgraph.ios7.icons.data;" vertex="1" parent="1">
          <mxGeometry x="96" y="260" width="61" height="74" as="geometry" />
        </mxCell>
        <mxCell id="uiOcUS1UXc89rVokBoGU-17" value="" style="sketch=0;points=[[0,0,0],[0.25,0,0],[0.5,0,0],[0.75,0,0],[1,0,0],[0,1,0],[0.25,1,0],[0.5,1,0],[0.75,1,0],[1,1,0],[0,0.25,0],[0,0.5,0],[0,0.75,0],[1,0.25,0],[1,0.5,0],[1,0.75,0]];outlineConnect=0;fontColor=#232F3E;fillColor=#ED7100;strokeColor=#ffffff;dashed=0;verticalLabelPosition=bottom;verticalAlign=top;align=center;html=1;fontSize=12;fontStyle=0;aspect=fixed;shape=mxgraph.aws4.resourceIcon;resIcon=mxgraph.aws4.lambda;" vertex="1" parent="1">
          <mxGeometry x="230" y="530" width="78" height="78" as="geometry" />
        </mxCell>
        <mxCell id="uiOcUS1UXc89rVokBoGU-18" value="" style="sketch=0;points=[[0,0,0],[0.25,0,0],[0.5,0,0],[0.75,0,0],[1,0,0],[0,1,0],[0.25,1,0],[0.5,1,0],[0.75,1,0],[1,1,0],[0,0.25,0],[0,0.5,0],[0,0.75,0],[1,0.25,0],[1,0.5,0],[1,0.75,0]];outlineConnect=0;fontColor=#232F3E;fillColor=#ED7100;strokeColor=#ffffff;dashed=0;verticalLabelPosition=bottom;verticalAlign=top;align=center;html=1;fontSize=12;fontStyle=0;aspect=fixed;shape=mxgraph.aws4.resourceIcon;resIcon=mxgraph.aws4.lambda;" vertex="1" parent="1">
          <mxGeometry x="230" y="670" width="78" height="78" as="geometry" />
        </mxCell>
        <mxCell id="uiOcUS1UXc89rVokBoGU-19" style="edgeStyle=orthogonalEdgeStyle;rounded=0;orthogonalLoop=1;jettySize=auto;html=1;entryX=0;entryY=0.5;entryDx=0;entryDy=0;entryPerimeter=0;" edge="1" parent="1" source="uiOcUS1UXc89rVokBoGU-15" target="uiOcUS1UXc89rVokBoGU-8">
          <mxGeometry relative="1" as="geometry" />
        </mxCell>
        <mxCell id="uiOcUS1UXc89rVokBoGU-20" style="edgeStyle=orthogonalEdgeStyle;rounded=0;orthogonalLoop=1;jettySize=auto;html=1;entryX=0;entryY=0.5;entryDx=0;entryDy=0;entryPerimeter=0;" edge="1" parent="1" source="uiOcUS1UXc89rVokBoGU-3" target="uiOcUS1UXc89rVokBoGU-9">
          <mxGeometry relative="1" as="geometry" />
        </mxCell>
        <mxCell id="uiOcUS1UXc89rVokBoGU-21" style="edgeStyle=orthogonalEdgeStyle;rounded=0;orthogonalLoop=1;jettySize=auto;html=1;entryX=0;entryY=0.5;entryDx=0;entryDy=0;entryPerimeter=0;" edge="1" parent="1" source="uiOcUS1UXc89rVokBoGU-2" target="uiOcUS1UXc89rVokBoGU-17">
          <mxGeometry relative="1" as="geometry" />
        </mxCell>
        <mxCell id="uiOcUS1UXc89rVokBoGU-43" style="edgeStyle=orthogonalEdgeStyle;rounded=0;orthogonalLoop=1;jettySize=auto;html=1;" edge="1" parent="1" source="uiOcUS1UXc89rVokBoGU-66" target="uiOcUS1UXc89rVokBoGU-6">
          <mxGeometry relative="1" as="geometry" />
        </mxCell>
        <mxCell id="uiOcUS1UXc89rVokBoGU-28" value="" style="sketch=0;points=[[0,0,0],[0.25,0,0],[0.5,0,0],[0.75,0,0],[1,0,0],[0,1,0],[0.25,1,0],[0.5,1,0],[0.75,1,0],[1,1,0],[0,0.25,0],[0,0.5,0],[0,0.75,0],[1,0.25,0],[1,0.5,0],[1,0.75,0]];outlineConnect=0;fontColor=#232F3E;fillColor=#CC0066;strokeColor=#ffffff;dashed=0;verticalLabelPosition=bottom;verticalAlign=top;align=center;html=1;fontSize=12;fontStyle=0;aspect=fixed;shape=mxgraph.aws4.resourceIcon;resIcon=mxgraph.aws4.lambda;" vertex="1" parent="1">
          <mxGeometry x="389" y="336" width="78" height="78" as="geometry" />
        </mxCell>
        <mxCell id="uiOcUS1UXc89rVokBoGU-35" value="Almacenamiento" style="text;html=1;align=center;verticalAlign=middle;whiteSpace=wrap;rounded=0;" vertex="1" parent="1">
          <mxGeometry x="398" y="270" width="60" height="30" as="geometry" />
        </mxCell>
        <mxCell id="uiOcUS1UXc89rVokBoGU-37" value="Procesamiento" style="text;html=1;align=center;verticalAlign=middle;whiteSpace=wrap;rounded=0;" vertex="1" parent="1">
          <mxGeometry x="239" y="210" width="60" height="30" as="geometry" />
        </mxCell>
        <mxCell id="uiOcUS1UXc89rVokBoGU-38" style="edgeStyle=orthogonalEdgeStyle;rounded=0;orthogonalLoop=1;jettySize=auto;html=1;entryX=0;entryY=0.5;entryDx=0;entryDy=0;entryPerimeter=0;" edge="1" parent="1" source="uiOcUS1UXc89rVokBoGU-8" target="uiOcUS1UXc89rVokBoGU-28">
          <mxGeometry relative="1" as="geometry" />
        </mxCell>
        <mxCell id="uiOcUS1UXc89rVokBoGU-41" style="edgeStyle=orthogonalEdgeStyle;rounded=0;orthogonalLoop=1;jettySize=auto;html=1;entryX=0;entryY=0.5;entryDx=0;entryDy=0;entryPerimeter=0;" edge="1" parent="1" source="uiOcUS1UXc89rVokBoGU-17" target="uiOcUS1UXc89rVokBoGU-28">
          <mxGeometry relative="1" as="geometry" />
        </mxCell>
        <mxCell id="uiOcUS1UXc89rVokBoGU-42" style="edgeStyle=orthogonalEdgeStyle;rounded=0;orthogonalLoop=1;jettySize=auto;html=1;entryX=0;entryY=0.5;entryDx=0;entryDy=0;entryPerimeter=0;" edge="1" parent="1" source="uiOcUS1UXc89rVokBoGU-18" target="uiOcUS1UXc89rVokBoGU-28">
          <mxGeometry relative="1" as="geometry" />
        </mxCell>
        <mxCell id="uiOcUS1UXc89rVokBoGU-47" style="edgeStyle=orthogonalEdgeStyle;rounded=0;orthogonalLoop=1;jettySize=auto;html=1;" edge="1" parent="1" source="uiOcUS1UXc89rVokBoGU-44" target="uiOcUS1UXc89rVokBoGU-45">
          <mxGeometry relative="1" as="geometry" />
        </mxCell>
        <mxCell id="uiOcUS1UXc89rVokBoGU-44" value="" style="sketch=0;points=[[0,0,0],[0.25,0,0],[0.5,0,0],[0.75,0,0],[1,0,0],[0,1,0],[0.25,1,0],[0.5,1,0],[0.75,1,0],[1,1,0],[0,0.25,0],[0,0.5,0],[0,0.75,0],[1,0.25,0],[1,0.5,0],[1,0.75,0]];outlineConnect=0;fontColor=#232F3E;fillColor=#8C4FFF;strokeColor=#ffffff;dashed=0;verticalLabelPosition=bottom;verticalAlign=top;align=center;html=1;fontSize=12;fontStyle=0;aspect=fixed;shape=mxgraph.aws4.resourceIcon;resIcon=mxgraph.aws4.glue;" vertex="1" parent="1">
          <mxGeometry x="522" y="584" width="78" height="78" as="geometry" />
        </mxCell>
        <mxCell id="uiOcUS1UXc89rVokBoGU-45" value="" style="sketch=0;outlineConnect=0;fontColor=#232F3E;gradientColor=none;fillColor=#8C4FFF;strokeColor=none;dashed=0;verticalLabelPosition=bottom;verticalAlign=top;align=center;html=1;fontSize=12;fontStyle=0;aspect=fixed;pointerEvents=1;shape=mxgraph.aws4.glue_data_catalog;" vertex="1" parent="1">
          <mxGeometry x="525" y="460" width="72" height="78" as="geometry" />
        </mxCell>
        <mxCell id="uiOcUS1UXc89rVokBoGU-46" style="edgeStyle=orthogonalEdgeStyle;rounded=0;orthogonalLoop=1;jettySize=auto;html=1;entryX=0;entryY=0.5;entryDx=0;entryDy=0;entryPerimeter=0;" edge="1" parent="1" source="uiOcUS1UXc89rVokBoGU-6" target="uiOcUS1UXc89rVokBoGU-44">
          <mxGeometry relative="1" as="geometry" />
        </mxCell>
        <mxCell id="uiOcUS1UXc89rVokBoGU-49" style="edgeStyle=orthogonalEdgeStyle;rounded=0;orthogonalLoop=1;jettySize=auto;html=1;entryX=0;entryY=0.5;entryDx=0;entryDy=0;entryPerimeter=0;" edge="1" parent="1" source="uiOcUS1UXc89rVokBoGU-44">
          <mxGeometry relative="1" as="geometry">
            <mxPoint x="650" y="623" as="targetPoint" />
          </mxGeometry>
        </mxCell>
        <mxCell id="uiOcUS1UXc89rVokBoGU-51" value="" style="sketch=0;points=[[0,0,0],[0.25,0,0],[0.5,0,0],[0.75,0,0],[1,0,0],[0,1,0],[0.25,1,0],[0.5,1,0],[0.75,1,0],[1,1,0],[0,0.25,0],[0,0.5,0],[0,0.75,0],[1,0.25,0],[1,0.5,0],[1,0.75,0]];outlineConnect=0;fontColor=#232F3E;fillColor=#8C4FFF;strokeColor=#ffffff;dashed=0;verticalLabelPosition=bottom;verticalAlign=top;align=center;html=1;fontSize=12;fontStyle=0;aspect=fixed;shape=mxgraph.aws4.resourceIcon;resIcon=mxgraph.aws4.lake_formation;" vertex="1" parent="1">
          <mxGeometry x="650" y="584" width="78" height="78" as="geometry" />
        </mxCell>
        <mxCell id="uiOcUS1UXc89rVokBoGU-52" value="" style="sketch=0;points=[[0,0,0],[0.25,0,0],[0.5,0,0],[0.75,0,0],[1,0,0],[0,1,0],[0.25,1,0],[0.5,1,0],[0.75,1,0],[1,1,0],[0,0.25,0],[0,0.5,0],[0,0.75,0],[1,0.25,0],[1,0.5,0],[1,0.75,0]];outlineConnect=0;fontColor=#232F3E;fillColor=#8C4FFF;strokeColor=#ffffff;dashed=0;verticalLabelPosition=bottom;verticalAlign=top;align=center;html=1;fontSize=12;fontStyle=0;aspect=fixed;shape=mxgraph.aws4.resourceIcon;resIcon=mxgraph.aws4.glue;" vertex="1" parent="1">
          <mxGeometry x="770" y="584" width="78" height="78" as="geometry" />
        </mxCell>
        <mxCell id="uiOcUS1UXc89rVokBoGU-53" style="edgeStyle=orthogonalEdgeStyle;rounded=0;orthogonalLoop=1;jettySize=auto;html=1;entryX=0;entryY=0.5;entryDx=0;entryDy=0;entryPerimeter=0;" edge="1" parent="1" source="uiOcUS1UXc89rVokBoGU-51" target="uiOcUS1UXc89rVokBoGU-52">
          <mxGeometry relative="1" as="geometry" />
        </mxCell>
        <mxCell id="uiOcUS1UXc89rVokBoGU-54" value="&lt;span id=&quot;docs-internal-guid-f54655bc-7fff-d866-c26d-fa4de6e5eb7c&quot;&gt;&lt;span style=&quot;font-family: Arial, sans-serif; background-color: transparent; font-variant-numeric: normal; font-variant-east-asian: normal; font-variant-alternates: normal; font-variant-position: normal; font-variant-emoji: normal; vertical-align: baseline; white-space-collapse: preserve;&quot;&gt;&lt;font&gt;Entrenar modelo predictivo&lt;/font&gt;&lt;/span&gt;&lt;/span&gt;" style="text;html=1;align=center;verticalAlign=middle;whiteSpace=wrap;rounded=0;" vertex="1" parent="1">
          <mxGeometry x="728.5" y="670" width="161" height="30" as="geometry" />
        </mxCell>
        <mxCell id="uiOcUS1UXc89rVokBoGU-55" value="&lt;span id=&quot;docs-internal-guid-f54655bc-7fff-d866-c26d-fa4de6e5eb7c&quot;&gt;&lt;span style=&quot;font-family: Arial, sans-serif; background-color: transparent; font-variant-numeric: normal; font-variant-east-asian: normal; font-variant-alternates: normal; font-variant-position: normal; font-variant-emoji: normal; vertical-align: baseline; white-space-collapse: preserve;&quot;&gt;&lt;font&gt;Lake Formation&lt;/font&gt;&lt;/span&gt;&lt;/span&gt;" style="text;html=1;align=center;verticalAlign=middle;whiteSpace=wrap;rounded=0;" vertex="1" parent="1">
          <mxGeometry x="600" y="670" width="161" height="30" as="geometry" />
        </mxCell>
        <mxCell id="uiOcUS1UXc89rVokBoGU-56" value="&lt;font face=&quot;Arial, sans-serif&quot;&gt;&lt;span style=&quot;white-space-collapse: preserve;&quot;&gt;CreaciÃ³n de Catalogos&lt;/span&gt;&lt;/font&gt;" style="text;html=1;align=center;verticalAlign=middle;whiteSpace=wrap;rounded=0;" vertex="1" parent="1">
          <mxGeometry x="480.5" y="410" width="161" height="30" as="geometry" />
        </mxCell>
        <mxCell id="uiOcUS1UXc89rVokBoGU-60" value="" style="shape=image;imageAspect=0;aspect=fixed;verticalLabelPosition=bottom;verticalAlign=top;image=https://discover.strongdm.com/hs-fs/hubfs/Technology%20Images/apache-superset.png?width=150&amp;height=150&amp;name=apache-superset.png;" vertex="1" parent="1">
          <mxGeometry x="878.5" y="432" width="100" height="100" as="geometry" />
        </mxCell>
        <mxCell id="uiOcUS1UXc89rVokBoGU-64" style="edgeStyle=orthogonalEdgeStyle;rounded=0;orthogonalLoop=1;jettySize=auto;html=1;" edge="1" parent="1" source="uiOcUS1UXc89rVokBoGU-62" target="uiOcUS1UXc89rVokBoGU-60">
          <mxGeometry relative="1" as="geometry" />
        </mxCell>
        <mxCell id="uiOcUS1UXc89rVokBoGU-62" value="" style="sketch=0;points=[[0,0,0],[0.25,0,0],[0.5,0,0],[0.75,0,0],[1,0,0],[0,1,0],[0.25,1,0],[0.5,1,0],[0.75,1,0],[1,1,0],[0,0.25,0],[0,0.5,0],[0,0.75,0],[1,0.25,0],[1,0.5,0],[1,0.75,0]];outlineConnect=0;fontColor=#232F3E;fillColor=#7AA116;strokeColor=#ffffff;dashed=0;verticalLabelPosition=bottom;verticalAlign=top;align=center;html=1;fontSize=12;fontStyle=0;aspect=fixed;shape=mxgraph.aws4.resourceIcon;resIcon=mxgraph.aws4.s3;" vertex="1" parent="1">
          <mxGeometry x="889.5" y="584" width="78" height="78" as="geometry" />
        </mxCell>
        <mxCell id="uiOcUS1UXc89rVokBoGU-63" style="edgeStyle=orthogonalEdgeStyle;rounded=0;orthogonalLoop=1;jettySize=auto;html=1;entryX=0;entryY=0.5;entryDx=0;entryDy=0;entryPerimeter=0;" edge="1" parent="1" source="uiOcUS1UXc89rVokBoGU-52" target="uiOcUS1UXc89rVokBoGU-62">
          <mxGeometry relative="1" as="geometry" />
        </mxCell>
        <mxCell id="uiOcUS1UXc89rVokBoGU-65" value="S3&amp;nbsp;&lt;div&gt;Results Data&lt;/div&gt;" style="text;html=1;align=center;verticalAlign=middle;whiteSpace=wrap;rounded=0;" vertex="1" parent="1">
          <mxGeometry x="898.5" y="670" width="60" height="30" as="geometry" />
        </mxCell>
        <mxCell id="uiOcUS1UXc89rVokBoGU-71" value="" style="edgeStyle=orthogonalEdgeStyle;rounded=0;orthogonalLoop=1;jettySize=auto;html=1;" edge="1" parent="1" source="uiOcUS1UXc89rVokBoGU-28" target="uiOcUS1UXc89rVokBoGU-66">
          <mxGeometry relative="1" as="geometry">
            <mxPoint x="428" y="414" as="sourcePoint" />
            <mxPoint x="428" y="584" as="targetPoint" />
          </mxGeometry>
        </mxCell>
        <mxCell id="uiOcUS1UXc89rVokBoGU-66" value="" style="sketch=0;points=[[0,0,0],[0.25,0,0],[0.5,0,0],[0.75,0,0],[1,0,0],[0,1,0],[0.25,1,0],[0.5,1,0],[0.75,1,0],[1,1,0],[0,0.25,0],[0,0.5,0],[0,0.75,0],[1,0.25,0],[1,0.5,0],[1,0.75,0]];outlineConnect=0;fontColor=#232F3E;fillColor=#E7157B;strokeColor=#ffffff;dashed=0;verticalLabelPosition=bottom;verticalAlign=top;align=center;html=1;fontSize=12;fontStyle=0;aspect=fixed;shape=mxgraph.aws4.resourceIcon;resIcon=mxgraph.aws4.eventbridge;" vertex="1" parent="1">
          <mxGeometry x="389" y="443" width="78" height="78" as="geometry" />
        </mxCell>
        <mxCell id="uiOcUS1UXc89rVokBoGU-74" value="&lt;font face=&quot;Arial, sans-serif&quot;&gt;&lt;span style=&quot;white-space-collapse: preserve;&quot;&gt;Event Bridge&lt;/span&gt;&lt;/font&gt;" style="text;html=1;align=center;verticalAlign=middle;whiteSpace=wrap;rounded=0;" vertex="1" parent="1">
          <mxGeometry x="347.5" y="521" width="161" height="30" as="geometry" />
        </mxCell>
      </root>
    </mxGraphModel>
  </diagram>
</mxfile>
